<?xml version="1.0" standalone="no"?>
<!DOCTYPE svg PUBLIC "-//W3C//DTD SVG 20010904//EN"
 "http://www.w3.org/TR/2001/REC-SVG-20010904/DTD/svg10.dtd">
<svg version="1.0" xmlns="http://www.w3.org/2000/svg"
 width="617.000000pt" height="530.000000pt" viewBox="0 0 617.000000 530.000000"
 preserveAspectRatio="xMidYMid meet">

<g transform="translate(0.000000,530.000000) scale(0.100000,-0.100000)"
fill="#000000" stroke="none">
<path d="M1083 5034 c-40 -9 -137 -51 -261 -113 -135 -68 -223 -106 -279 -120
-137 -34 -205 -81 -246 -170 -42 -94 -3 -225 90 -301 47 -39 49 -40 129 -40
80 0 154 19 154 40 0 5 11 12 24 16 17 4 29 21 48 67 21 52 25 77 23 153 l-1
92 47 6 c27 4 95 30 158 62 69 34 128 57 160 61 l49 6 11 -54 c6 -30 20 -106
31 -169 12 -63 53 -257 91 -430 39 -173 106 -490 149 -705 82 -408 277 -1354
287 -1392 5 -21 2 -23 -38 -23 -64 0 -157 -25 -182 -48 -12 -11 -58 -43 -102
-72 -90 -59 -160 -123 -211 -191 l-34 -47 0 -116 0 -117 43 -54 c23 -29 55
-59 71 -66 15 -7 43 -22 61 -34 40 -28 128 -44 287 -52 211 -10 481 22 878
105 183 38 187 39 325 31 322 -19 1962 -55 2047 -45 65 7 102 29 123 72 30 64
8 142 -52 181 -32 21 -282 28 -1519 39 l-771 6 -159 -31 c-87 -18 -172 -36
-189 -41 -16 -5 -66 -14 -110 -20 -44 -6 -98 -17 -120 -24 -54 -19 -239 -32
-414 -28 -116 2 -152 6 -187 22 -24 10 -47 26 -50 35 -10 26 16 63 71 102 27
20 66 51 85 68 19 18 60 40 90 50 83 27 102 38 119 68 19 32 46 43 65 27 8 -6
30 -10 49 -8 27 1 43 -5 73 -31 l38 -34 216 6 c118 3 386 20 595 36 482 38
835 54 995 46 104 -6 149 -3 263 15 126 20 161 22 385 16 136 -3 288 -9 338
-12 148 -10 218 21 228 99 25 190 39 264 56 296 10 20 24 75 30 121 16 115 24
149 60 260 42 128 138 387 156 421 35 69 50 585 21 732 -34 171 -87 273 -155
300 -33 13 -156 27 -457 53 -38 3 -114 12 -167 20 -67 9 -111 11 -145 5 -26
-5 -401 -14 -833 -20 -1183 -17 -1808 -30 -1880 -41 -36 -5 -87 -10 -115 -11
l-49 -3 -22 69 c-24 74 -35 131 -84 440 -17 105 -37 204 -44 220 -17 37 -56
117 -76 156 -10 18 -23 29 -37 29 -12 0 -48 7 -80 15 -65 17 -66 17 -150 -1z
m772 -1125 c55 -5 213 -12 351 -15 l252 -7 6 -76 c4 -42 20 -153 37 -248 16
-95 31 -210 32 -257 l3 -84 -81 -7 c-44 -4 -138 -15 -210 -25 -71 -10 -153
-21 -181 -24 -28 -4 -93 -24 -144 -47 -51 -22 -95 -37 -98 -35 -7 8 -137 533
-166 676 -14 69 -29 136 -32 149 l-5 24 68 -7 c37 -4 113 -11 168 -17z m2398
-20 c1 -2 1 -137 -1 -301 l-4 -296 -36 -7 c-20 -4 -159 -3 -308 0 l-271 8 -7
86 c-4 47 -15 163 -26 256 -31 274 -32 253 10 259 40 5 640 0 643 -5z m467 -4
c113 -9 242 -18 286 -21 l82 -6 6 -31 c14 -66 26 -306 21 -407 -12 -223 -24
-300 -60 -370 -18 -36 -57 -130 -85 -210 -29 -80 -65 -170 -81 -201 -20 -41
-30 -82 -38 -155 -10 -89 -34 -247 -46 -299 -4 -20 -9 -20 -77 -14 -40 4 -139
11 -220 15 -82 4 -148 8 -148 10 0 1 7 31 14 66 19 79 42 299 57 538 6 102 13
187 15 189 2 2 59 10 126 18 162 18 283 47 330 78 21 14 38 29 38 33 0 11 -68
49 -122 68 -53 19 -223 44 -300 44 l-58 0 0 335 0 335 28 0 c15 0 119 -7 232
-15z m-1291 -107 c6 -62 16 -160 22 -218 6 -58 14 -116 17 -130 3 -14 7 -43 7
-65 1 -22 4 -47 6 -55 3 -13 -21 -16 -156 -22 -88 -3 -214 -11 -280 -17 -116
-10 -285 -15 -285 -7 0 1 -27 95 -60 207 -34 112 -70 242 -81 289 -10 47 -21
95 -24 108 l-5 22 414 0 413 0 12 -112z m75 -790 c2 -13 9 -144 15 -293 6
-148 18 -335 27 -414 8 -79 14 -144 12 -145 -3 -2 -99 -12 -683 -66 -110 -10
-297 -26 -415 -35 -160 -11 -239 -22 -309 -41 -51 -14 -97 -22 -101 -17 -15
17 -205 941 -196 951 2 1 34 -2 71 -9 66 -11 97 -11 506 7 l146 7 7 -29 c3
-16 11 -150 16 -299 16 -455 15 -454 81 -496 42 -26 55 -30 86 -24 51 9 98 61
113 125 18 74 5 434 -20 560 -30 154 -32 188 -12 194 51 14 307 34 579 44 69
3 73 2 77 -20z m714 -68 c2 -47 -4 -178 -13 -293 -8 -114 -15 -261 -15 -327
l0 -119 -32 -6 c-137 -23 -254 -35 -347 -35 l-108 0 -7 98 c-22 330 -36 590
-36 675 l0 97 278 -2 277 -3 3 -85z"/>
<path d="M2250 1200 c-8 -5 -26 -10 -40 -10 -45 0 -143 -30 -222 -67 -64 -30
-85 -46 -119 -90 -22 -30 -52 -79 -66 -110 -22 -48 -24 -62 -18 -121 4 -37 16
-87 26 -112 12 -26 18 -55 14 -69 -3 -13 2 -54 12 -92 15 -60 25 -77 78 -133
54 -57 67 -65 117 -75 92 -19 234 8 364 70 22 10 47 19 55 19 23 0 150 153
188 227 31 62 53 169 49 239 -5 77 -48 168 -117 245 -49 54 -51 56 -135 72
-95 19 -164 21 -186 7z m139 -251 c28 -10 31 -15 31 -51 0 -74 -20 -118 -83
-177 -32 -31 -64 -59 -72 -64 -15 -8 -164 57 -222 96 -36 24 -40 44 -19 85 29
55 96 102 173 122 44 11 146 5 192 -11z"/>
<path d="M4430 1190 c-19 -5 -78 -16 -130 -26 -52 -9 -106 -24 -120 -34 -14
-9 -45 -28 -70 -40 -25 -13 -70 -48 -101 -80 -69 -69 -79 -105 -79 -287 0
-122 1 -127 27 -162 43 -56 125 -136 137 -133 5 2 27 -4 47 -14 60 -26 240
-15 338 21 74 27 166 80 190 109 7 9 20 16 28 16 19 0 99 169 120 254 17 72
17 71 -19 214 -9 34 -21 58 -33 64 -11 6 -36 25 -55 44 -19 18 -47 37 -63 43
-38 15 -175 21 -217 11z m130 -272 c0 -59 -23 -104 -82 -162 l-60 -59 -80 7
c-122 10 -155 36 -146 111 4 37 36 59 133 94 61 22 99 29 158 30 73 1 77 0 77
-21z"/>
</g>
</svg>
